<svg width="194" height="194" viewBox="0 0 194 194" fill="none" xmlns="http://www.w3.org/2000/svg">
<path d="M38.0815 125.945C77.9821 125.945 117.793 125.947 157.604 125.942C161.957 125.942 165.145 127.842 166.96 131.8C167.469 132.91 167.745 134.211 167.784 135.435C167.876 138.301 167.957 141.193 167.678 144.039C167.282 148.076 165.002 151.13 161.858 153.563C158.348 156.281 154.303 157.898 150.094 159.136C144.63 160.744 139.023 161.602 133.374 162.232C125.099 163.154 116.796 163.584 108.476 163.665C101.145 163.736 93.8098 163.881 86.484 163.694C78.684 163.495 70.8798 163.11 63.1016 162.499C55.5613 161.906 48.0781 160.773 40.8925 158.237C36.9154 156.833 33.1689 155.014 30.1215 151.989C27.5958 149.482 26.0834 146.483 25.95 142.921C25.8462 140.145 25.8147 137.346 26.0519 134.583C26.4608 129.821 30.4357 126.189 35.209 125.966C36.1349 125.923 37.0641 125.95 38.0815 125.945ZM105.314 156.198C105.792 156.173 106.27 156.128 106.748 156.125C114.949 156.061 123.133 155.674 131.292 154.829C136.767 154.262 142.208 153.476 147.514 151.96C150.831 151.012 154.058 149.847 156.804 147.657C158.199 146.544 159.429 145.186 159.596 143.409C159.841 140.8 159.82 138.154 159.722 135.53C159.666 134.028 158.915 133.539 157.405 133.539C117.053 133.539 76.7009 133.54 36.3488 133.541C34.7233 133.541 33.9736 134.292 33.9597 135.959C33.9457 137.636 34.0436 139.318 33.9352 140.987C33.7262 144.208 35.2208 146.479 37.7313 148.243C39.9592 149.808 42.4551 150.801 45.0353 151.596C51.8174 153.688 58.811 154.662 65.8512 155.126C73.938 155.659 82.0449 155.93 90.1474 156.17C95.1415 156.318 100.144 156.198 105.314 156.198Z" fill="#E22630"/>
<path d="M34.7565 91.2757C41.2115 91.27 47.5859 91.2141 53.9588 91.2887C57.6502 91.3319 61.2911 91.8296 64.6755 93.4671C68.6018 95.3668 71.1546 98.4101 72.1493 102.673C73.002 106.327 72.9241 109.97 71.675 113.538C70.1666 117.846 66.9883 120.425 62.8188 121.924C59.6563 123.061 56.3566 123.363 53.026 123.374C47.1011 123.394 41.176 123.366 35.2512 123.402C34.4106 123.408 34.1671 123.139 34.1688 122.327C34.1898 112.333 34.1831 102.338 34.1921 92.3437C34.1925 91.9353 33.9823 91.3909 34.7565 91.2757ZM46.1658 102.685C46.1659 105.918 46.184 109.15 46.1519 112.382C46.1448 113.088 46.3582 113.317 47.0692 113.3C48.9236 113.256 50.7844 113.365 52.6337 113.258C54.1425 113.171 55.6845 113.023 57.129 112.612C59.1261 112.043 60.3831 110.595 60.6336 108.493C60.8935 106.31 60.6677 104.235 58.6814 102.783C57.5534 101.959 56.2577 101.575 54.9092 101.515C52.3707 101.403 49.8252 101.452 47.2858 101.352C46.3531 101.315 46.0132 101.619 46.1658 102.685Z" fill="#F7AD1B"/>
<path d="M155.862 96.6998C157.345 98.4567 158.421 100.343 158.883 102.677C158.499 102.709 158.245 102.748 157.991 102.748C154.31 102.752 150.628 102.767 146.948 102.73C146.527 102.725 146.022 102.523 145.707 102.242C144.408 101.084 142.884 100.448 141.198 100.201C138.736 99.8412 136.286 99.9471 133.974 100.936C131.18 102.131 130.157 104.701 130.3 107.889C130.334 108.654 130.483 109.439 130.727 110.166C131.389 112.143 132.791 113.432 134.773 114.008C137.687 114.855 140.612 114.893 143.491 113.811C144.597 113.396 145.541 112.749 146.306 111.582C145.804 111.546 145.439 111.497 145.074 111.496C143.278 111.488 141.482 111.474 139.687 111.502C139.103 111.511 138.891 111.32 138.901 110.727C138.928 108.961 138.931 107.195 138.897 105.43C138.884 104.78 139.073 104.537 139.758 104.539C146.042 104.555 152.327 104.544 158.612 104.527C159.078 104.526 159.322 104.64 159.382 105.145C160.135 111.521 158.152 117.721 151.989 121.068C148.871 122.762 145.491 123.497 142.015 123.706C137.586 123.971 133.165 123.852 128.894 122.374C124.192 120.746 120.601 117.89 119.174 112.979C117.654 107.747 117.894 102.598 120.991 97.9035C122.707 95.3023 125.227 93.6452 128.118 92.5433C132.282 90.9563 136.623 90.7215 141.009 90.8958C144.843 91.0482 148.585 91.6944 151.94 93.6565C153.339 94.4748 154.533 95.643 155.862 96.6998Z" fill="#F6AD1B"/>
<path d="M80.0921 119.481C75.5815 115.67 74.5365 110.672 74.9988 105.175C75.2198 102.549 75.9904 100.069 77.5418 97.895C79.8586 94.6482 83.113 92.7765 86.8976 91.8338C92.3511 90.4755 97.8705 90.4234 103.343 91.6502C108.578 92.824 112.843 95.4336 114.943 100.673C115.448 101.934 115.804 103.303 115.941 104.652C116.358 108.767 116.057 112.778 113.703 116.389C111.861 119.214 109.245 121.041 106.141 122.161C101.048 124.001 95.7838 124.095 90.469 123.479C87.5569 123.141 84.7735 122.394 82.2194 120.923C81.4973 120.508 80.8334 119.991 80.0921 119.481ZM103.724 104.769C103.012 103.032 101.665 102.043 99.9144 101.52C97.4245 100.776 94.8822 100.762 92.3662 101.201C89.7857 101.651 87.6295 102.804 87.022 105.664C86.3059 109.035 87.5239 112.164 91.2866 113.185C93.4502 113.771 95.6492 113.839 97.8637 113.562C99.4241 113.366 100.957 113.01 102.171 111.96C104.411 110.023 104.508 107.542 103.724 104.769Z" fill="#F7AD1B"/>
<path d="M121.537 86.4232C119.572 86.423 117.686 86.4569 115.804 86.3945C115.408 86.3814 114.897 86.1101 114.657 85.7932C113.883 84.7709 113.24 83.6497 112.479 82.6168C112.272 82.3367 111.835 82.0999 111.487 82.0748C110.475 82.002 109.454 82.07 108.438 82.0367C107.803 82.0158 107.598 82.279 107.621 82.8903C107.657 83.8162 107.599 84.7458 107.638 85.6715C107.663 86.2695 107.433 86.4418 106.858 86.4335C104.944 86.4058 103.029 86.4164 101.115 86.4263C100.674 86.4285 100.376 86.3792 100.378 85.8112C100.403 79.6206 100.41 73.4299 100.424 67.2392C100.424 67.2115 100.443 67.1838 100.487 67.0659C100.702 67.0462 100.959 67.0021 101.216 67.0019C105.494 66.9993 109.772 66.9747 114.05 67.016C116.077 67.0355 118.015 67.4668 119.745 68.6272C121.971 70.1208 122.655 72.3136 122.584 74.8321C122.51 77.4638 121.444 79.5567 118.95 80.8795C120.153 82.7114 121.307 84.468 122.535 86.339C122.124 86.3767 121.871 86.3999 121.537 86.4232ZM113.69 75.9363C114.168 75.7304 114.803 75.6518 115.093 75.2938C115.845 74.3675 115.165 73.1702 113.877 73.1189C112.446 73.0621 111.011 73.0805 109.578 73.106C107.271 73.1472 107.641 72.662 107.578 75.1615C107.562 75.8141 107.829 75.9748 108.424 75.9642C110.126 75.934 111.828 75.9471 113.69 75.9363Z" fill="#F6AD1C"/>
<path d="M58.7331 73.0932C59.5206 71.2444 60.302 69.4668 61.0389 67.671C61.2369 67.1884 61.4792 66.984 62.0229 66.9883C65.1039 67.0129 68.1853 67.0178 71.2661 66.9831C71.8787 66.9761 72.0721 67.2766 72.274 67.7519C74.5749 73.1698 76.8914 78.5811 79.2039 83.9941C79.5275 84.7516 79.8522 85.5087 80.243 86.4216C78.2902 86.4216 76.521 86.2985 74.7777 86.458C73.1925 86.603 72.3323 86.1514 71.8642 84.5629C71.4263 83.0771 71.2832 83.1324 69.7547 83.1402C67.4813 83.1519 65.2076 83.1603 62.9345 83.1321C62.2572 83.1237 61.8749 83.3053 61.601 83.9953C60.632 86.4362 60.5994 86.4232 57.9306 86.4232C56.3794 86.4232 54.8282 86.4232 53.019 86.4232C54.9616 81.8954 56.836 77.5266 58.7331 73.0932ZM68.5774 78.1166C69.1454 78.1521 69.0465 77.8525 68.8944 77.5053C68.2958 76.1388 67.7073 74.7679 67.1067 73.4024C66.9832 73.1215 66.8238 72.8563 66.5621 72.3573C65.7109 74.3821 64.9622 76.1629 64.1404 78.1177C65.7463 78.1177 67.0854 78.1177 68.5774 78.1166Z" fill="#F6AD1C"/>
<path d="M35.2454 86.4227C34.4359 86.5258 34.1719 86.2503 34.175 85.4864C34.1991 79.6831 34.1918 73.8797 34.1699 68.0765C34.167 67.3081 34.3435 66.967 35.2208 66.9782C38.9595 67.0259 42.7005 66.939 46.4377 67.0264C47.7909 67.0581 49.1822 67.2906 50.4758 67.6909C53.9889 68.7781 55.7796 71.923 55.2779 75.5912C54.7343 79.5658 51.7956 81.5679 47.8339 81.893C46.1093 82.0345 44.3705 82.0147 42.6377 82.0434C41.4846 82.0626 41.4804 82.043 41.4737 83.2333C41.468 84.2446 41.4725 85.256 41.4725 86.4228C39.3709 86.4228 37.3508 86.4228 35.2454 86.4227ZM44.6358 73.1292C44.2169 73.1297 43.7979 73.1299 43.379 73.1306C41.3319 73.1342 41.332 73.1343 41.4603 75.1692C41.4622 75.1991 41.4504 75.2415 41.4659 75.257C41.6608 75.4512 41.8555 75.802 42.058 75.8072C43.5828 75.8466 45.1098 75.8374 46.6351 75.8026C47.5141 75.7825 48.0281 75.2821 48.0679 74.5127C48.1064 73.7696 47.5999 73.2355 46.6981 73.1571C46.074 73.1028 45.4424 73.1355 44.6358 73.1292Z" fill="#F6AD1C"/>
<path d="M80.6536 73.1417C79.6359 73.1406 78.706 73.1716 77.7813 73.1164C77.5423 73.1022 77.1235 72.8228 77.1192 72.6567C77.0716 70.8106 77.0892 68.9627 77.0892 67.0465C77.4966 67.028 77.8164 67.001 78.1363 67.0008C84.692 66.9966 91.2477 67.0075 97.8032 66.9773C98.5516 66.9739 98.8069 67.1995 98.7881 67.9344C98.7507 69.4002 98.7496 70.8682 98.7861 72.3339C98.802 72.9764 98.5533 73.1558 97.9469 73.1467C96.1812 73.1202 94.4144 73.163 92.6488 73.132C91.8433 73.1179 91.5611 73.4024 91.5706 74.2346C91.6132 77.976 91.5773 81.7182 91.6114 85.4598C91.618 86.1822 91.4411 86.4572 90.6699 86.439C88.5843 86.39 86.4968 86.4222 84.2885 86.4222C84.2885 85.9587 84.2883 85.6089 84.2885 85.2591C84.2916 81.5771 84.2794 77.8951 84.3103 74.2133C84.3168 73.4303 84.1357 73.0445 83.2564 73.1248C82.4252 73.2007 81.5816 73.1415 80.6536 73.1417Z" fill="#F6AD1D"/>
<path d="M134.551 75.4445C134.551 72.6101 134.551 69.8656 134.551 67.0578C137 67.0578 139.348 67.0578 141.809 67.0578C141.809 70.1019 141.809 73.1376 141.809 76.1733C141.889 76.2201 141.969 76.2669 142.049 76.3136C142.635 75.724 143.234 75.1463 143.805 74.5427C145.757 72.4813 147.787 70.4853 149.607 68.3131C150.56 67.1758 151.584 66.9213 152.94 66.9741C155.055 67.0566 157.176 66.996 159.506 66.996C159.113 67.4802 158.862 67.8339 158.568 68.1463C156.087 70.7792 153.612 73.4192 151.098 76.0204C150.569 76.5677 150.613 76.8982 151.115 77.4199C153.663 80.0673 156.179 82.746 158.701 85.4191C158.942 85.675 159.144 85.9683 159.443 86.3441C159.093 86.3786 158.843 86.4241 158.593 86.4246C156.259 86.4298 153.925 86.4539 151.593 86.4022C151.176 86.393 150.66 86.1636 150.37 85.8621C147.929 83.3168 145.526 80.7347 143.123 78.1532C142.785 77.7898 142.507 77.3696 142.202 76.9757C142.1 77.0481 141.998 77.1205 141.896 77.1929C141.881 77.4753 141.854 77.7577 141.854 78.0401C141.849 80.5232 141.821 83.0068 141.865 85.4891C141.878 86.2522 141.624 86.4588 140.893 86.4399C139.129 86.3944 137.362 86.3915 135.598 86.4404C134.807 86.4623 134.516 86.268 134.53 85.4067C134.583 82.1166 134.551 78.8252 134.551 75.4445ZM147.476 81.7315C147.476 81.7315 147.476 81.7313 147.489 81.8599C148.287 82.7548 149.07 83.6636 149.888 84.5392C150.37 85.0549 150.843 85.809 151.435 85.9408C152.489 86.1756 153.637 86.085 154.731 85.982C155.01 85.9557 155.235 85.371 155.489 85.0457C155.498 85.0338 155.546 85.0517 155.651 85.0659C155.651 85.353 155.651 85.6513 155.651 86.0654C156.406 86.0277 157.123 85.9919 157.84 85.9561C157.836 85.8464 157.832 85.7366 157.828 85.6269C157.626 85.6033 157.425 85.5797 157.223 85.5561C157.28 85.5033 157.337 85.4505 157.394 85.3976C156.926 84.6937 156.54 83.9126 155.972 83.3025C154.902 82.156 153.688 81.1456 152.608 80.0082C151.652 79.0007 150.796 77.8975 149.789 76.7105C150.184 76.1985 150.72 75.492 151.271 74.7979C151.5 74.5102 151.71 74.1416 152.018 73.9955C153.021 73.5183 153.654 72.7707 154.099 71.7659C154.277 71.3658 154.748 71.095 155.087 70.768C155.37 70.4956 155.657 70.2271 156.06 69.8446C155.681 69.7187 155.446 69.641 155.212 69.5633C155.296 69.4798 155.381 69.3962 155.465 69.3127C156.693 69.432 157.455 68.9197 158 67.5217C156.059 67.4674 154.16 67.4437 152.265 67.3485C151.367 67.3034 150.787 67.5216 150.821 68.3679C150.176 68.7689 149.641 69.101 149.108 69.4326C149.385 69.8875 149.607 70.2535 149.83 70.6194C149.66 70.766 149.491 70.9127 149.321 71.0594C149.195 70.7149 149.069 70.3704 148.943 70.0259C148.859 70.0159 148.774 70.0059 148.689 69.9959C148.17 71.1323 146.408 71.3739 146.665 72.8625C146.001 73.3198 145.415 73.6985 144.859 74.1161C144.585 74.3214 144.357 74.5903 144.124 74.8451C143.563 75.4598 143.011 76.0831 142.321 76.8531C142.868 76.8107 143.163 76.7878 143.209 76.7842C143.4 77.3703 143.413 77.9214 143.686 78.1273C144.041 78.3946 144.603 78.3874 145.139 78.5131C144.909 78.9473 144.487 79.4688 145.111 79.6358C145.627 79.502 145.926 79.4247 146.224 79.3474C146.151 79.6495 146.079 79.9516 146.006 80.2537C145.921 80.2965 145.835 80.3393 145.75 80.3821C146.325 80.8319 146.901 81.2818 147.476 81.7315Z" fill="#F4AE22"/>
<path d="M144.397 33.295C150.138 34.3413 155.716 35.6525 160.78 38.5387C163.732 40.2213 166.193 42.3952 167.329 45.7344C167.576 46.4624 167.765 47.2434 167.794 48.0069C167.872 50.1285 167.945 52.2578 167.851 54.3766C167.678 58.281 164.769 61.4999 160.751 62.3167C159.762 62.5178 158.735 62.6206 157.725 62.6209C117.197 62.6362 76.6694 62.6323 36.1416 62.6387C32.599 62.6392 29.5545 61.5992 27.3566 58.6539C26.4895 57.4919 25.9725 56.1758 25.9255 54.7511C25.8526 52.5398 25.823 50.3183 25.951 48.1114C26.1593 44.5198 28.1868 41.9399 30.9481 39.8775C34.336 37.3471 38.2523 35.9568 42.2772 34.857C48.5313 33.1481 54.9377 32.3488 61.3774 31.7735C74.3564 30.614 87.371 30.3996 100.386 30.5603C109.866 30.6773 119.351 30.9985 128.818 31.5141C134.002 31.7964 139.154 32.671 144.397 33.295ZM151.621 35.4208C150.126 34.9925 148.649 34.482 147.131 34.1585C145.508 33.8124 143.85 33.6258 142.203 33.3991C138.693 32.9159 135.188 32.3757 131.666 32.0059C129.211 31.7482 126.73 31.735 124.261 31.6123C122.922 31.5457 121.583 31.4604 120.243 31.4163C118.681 31.3649 117.117 31.32 115.554 31.3322C114.891 31.3374 114.105 31.7666 113.592 31.5308C112.271 30.9241 110.914 30.9503 109.549 30.9157C109.071 30.9035 108.584 31.2116 108.107 31.1942C106.723 31.1436 105.342 30.9077 103.96 30.9125C97.4119 30.9355 90.8637 31.0102 84.3156 31.0862C83.9863 31.09 83.6592 31.2771 83.3742 31.3655C82.9387 31.2673 82.5088 31.0856 82.0809 31.0902C80.8904 31.1028 79.7013 31.2127 78.5106 31.2473C76.9682 31.2921 75.4226 31.2575 73.8822 31.3344C70.0768 31.5243 66.2731 31.7509 62.4697 31.9805C61.6406 32.0306 60.8141 32.1413 59.9894 32.2477C57.9752 32.5076 55.9611 32.7698 53.95 33.0536C52.6057 33.2432 51.2645 33.4582 49.9261 33.6863C48.8152 33.8755 47.7058 34.0787 46.604 34.3144C44.9074 34.6774 43.2066 35.0305 41.529 35.4696C40.2594 35.8019 38.9688 36.1438 37.7844 36.6912C35.7556 37.6289 33.7671 38.6697 31.8353 39.7937C31.0785 40.2341 30.6069 41.1602 29.8535 41.6115C28.2233 42.5881 27.4818 44.2179 26.8731 45.7927C26.3439 47.1621 26.2969 48.7618 26.2592 50.2653C26.2187 51.8767 26.5216 53.4949 26.5177 55.1097C26.5145 56.4232 27.1465 57.559 27.7755 58.4689C29.4513 60.8928 31.9831 62.1362 34.9449 62.1387C65.029 62.1644 95.1131 62.1543 125.197 62.1543C136.393 62.1543 147.588 62.1663 158.784 62.1399C160.264 62.1364 161.72 61.8551 162.983 60.9701C163.549 60.5735 164.219 60.2777 164.676 59.7834C165.456 58.9417 166.289 58.0673 166.773 57.0509C168.071 54.3229 167.15 51.3364 167.508 48.4799C167.622 47.5693 167.041 46.5892 166.891 45.6234C166.733 44.6002 165.69 44.2027 165.398 43.1997C165.188 42.478 164.569 41.6336 163.541 41.4523C163.272 41.405 162.943 41.0831 162.842 40.8125C162.429 39.704 161.351 39.1874 160.492 39.0165C159.067 38.7328 158.408 37.2268 156.884 37.1835C156.189 37.1637 155.538 36.4836 154.818 36.318C153.915 36.1104 153.103 35.4309 152.085 35.7271C151.996 35.753 151.849 35.5777 151.621 35.4208Z" fill="#D73841"/>
<path d="M130.045 86.4228C128.431 86.4226 126.905 86.4097 125.379 86.4299C124.869 86.4367 124.625 86.3131 124.626 85.7338C124.643 79.6305 124.637 73.5271 124.64 67.4237C124.64 67.336 124.671 67.2483 124.703 67.0775C127.034 67.0775 129.376 67.0775 131.859 67.0775C131.859 67.5855 131.859 68.0822 131.859 68.579C131.857 74.084 131.86 79.5891 131.851 85.0942C131.849 86.5473 132.052 86.407 130.493 86.4229C130.373 86.4241 130.254 86.423 130.045 86.4228Z" fill="#F5AD1C"/>
<path d="M113.61 75.9397C111.828 75.9471 110.126 75.934 108.424 75.9642C107.829 75.9748 107.562 75.8141 107.578 75.1615C107.641 72.662 107.271 73.1472 109.578 73.106C111.01 73.0805 112.446 73.0621 113.877 73.1189C115.165 73.1702 115.845 74.3675 115.093 75.2938C114.803 75.6518 114.168 75.7304 113.61 75.9397ZM108.701 75.5325C108.936 75.5184 109.172 75.4868 109.407 75.4932C110.775 75.5304 112.143 75.62 113.51 75.6008C114.162 75.5917 114.848 75.407 114.952 74.5702C114.997 74.2045 113.901 73.4621 113.355 73.4603C111.832 73.4552 110.309 73.4641 108.785 73.4562C108.316 73.4538 107.872 73.5435 107.971 74.1155C108.059 74.6283 107.479 75.4599 108.701 75.5325Z" fill="#FDEFB9"/>
<path d="M147.476 81.7317C146.901 81.2818 146.325 80.8319 145.75 80.382C145.835 80.3393 145.921 80.2965 146.006 80.2537C146.079 79.9516 146.151 79.6495 146.224 79.3474C145.926 79.4247 145.627 79.5019 145.111 79.6357C144.487 79.4687 144.909 78.9473 145.139 78.5131C144.603 78.3873 144.041 78.3946 143.686 78.1273C143.413 77.9214 143.4 77.3703 143.209 76.7842C143.163 76.7878 142.868 76.8107 142.321 76.8531C143.011 76.0831 143.563 75.4598 144.124 74.8451C144.357 74.5903 144.585 74.3213 144.859 74.1161C145.415 73.6985 146.001 73.3197 146.665 72.8625C146.408 71.3739 148.17 71.1323 148.689 69.9959C148.774 70.0059 148.859 70.0159 148.943 70.0258C149.069 70.3704 149.195 70.7149 149.321 71.0594C149.491 70.9127 149.66 70.766 149.83 70.6193C149.607 70.2534 149.385 69.8875 149.108 69.4326C149.641 69.101 150.176 68.7689 150.821 68.3679C150.787 67.5216 151.367 67.3034 152.265 67.3485C154.16 67.4437 156.059 67.4674 158 67.5216C157.455 68.9197 156.693 69.432 155.465 69.3127C155.381 69.3962 155.296 69.4798 155.212 69.5633C155.446 69.641 155.681 69.7187 156.06 69.8446C155.657 70.2271 155.37 70.4956 155.087 70.768C154.748 71.095 154.277 71.3658 154.099 71.7659C153.654 72.7707 153.021 73.5182 152.018 73.9955C151.71 74.1415 151.5 74.5102 151.271 74.7979C150.72 75.492 150.184 76.1985 149.789 76.7105C150.796 77.8975 151.652 79.0007 152.608 80.0082C153.688 81.1456 154.902 82.156 155.972 83.3025C156.54 83.9126 156.926 84.6937 157.394 85.3976C157.337 85.4504 157.28 85.5033 157.223 85.5561C157.425 85.5797 157.626 85.6033 157.828 85.6269C157.832 85.7366 157.836 85.8463 157.84 85.9561C157.123 85.9919 156.406 86.0277 155.651 86.0654C155.651 85.6513 155.651 85.353 155.651 85.0659C155.546 85.0516 155.498 85.0338 155.489 85.0456C155.235 85.371 155.01 85.9557 154.731 85.9819C153.637 86.085 152.489 86.1756 151.435 85.9408C150.843 85.809 150.37 85.0549 149.888 84.5392C149.07 83.6635 148.287 82.7548 147.552 81.7954C147.798 81.6353 147.981 81.5396 148.164 81.444C147.946 81.2347 147.728 81.0254 147.336 80.6476C147.41 81.2193 147.443 81.4755 147.476 81.7317ZM149.477 83.6058C149.637 83.5265 149.942 83.3841 149.939 83.3768C149.676 82.7784 149.471 82.1166 148.767 81.9097C148.674 81.9714 148.581 82.0331 148.487 82.0948C148.785 82.5688 149.083 83.0429 149.477 83.6058ZM156.38 68.3123C156.331 68.2611 156.282 68.2099 156.233 68.1588C156.212 68.179 156.171 68.2158 156.172 68.2172C156.218 68.2711 156.267 68.3219 156.38 68.3123ZM152.255 67.8637C152.185 67.8629 152.114 67.8622 152.043 67.8614C152.043 67.8907 152.041 67.9455 152.043 67.9457C152.113 67.9511 152.184 67.9514 152.255 67.8637Z" fill="#F8AC16"/>
<path d="M151.675 35.4583C151.849 35.5777 151.996 35.753 152.085 35.7271C153.103 35.4309 153.915 36.1103 154.818 36.318C155.538 36.4836 156.189 37.1637 156.884 37.1835C158.408 37.2268 159.067 38.7328 160.492 39.0165C161.351 39.1874 162.429 39.704 162.842 40.8125C162.943 41.0831 163.272 41.405 163.541 41.4523C164.569 41.6336 165.188 42.478 165.398 43.1997C165.69 44.2027 166.733 44.6002 166.891 45.6233C167.041 46.5892 167.622 47.5693 167.508 48.4799C167.15 51.3364 168.071 54.3229 166.773 57.0509C166.289 58.0673 165.456 58.9417 164.676 59.7834C164.219 60.2776 163.549 60.5735 162.983 60.9701C161.72 61.8551 160.264 62.1364 158.784 62.1399C147.588 62.1663 136.393 62.1542 125.197 62.1543C95.1131 62.1543 65.029 62.1644 34.9449 62.1387C31.983 62.1362 29.4513 60.8928 27.7755 58.4689C27.1465 57.559 26.5145 56.4232 26.5177 55.1097C26.5215 53.4949 26.2187 51.8767 26.2592 50.2653C26.2969 48.7618 26.3438 47.1621 26.8731 45.7927C27.4818 44.2179 28.2233 42.5881 29.8535 41.6115C30.6069 41.1602 31.0785 40.2341 31.8353 39.7937C33.7671 38.6697 35.7556 37.6288 37.7844 36.6912C38.9687 36.1438 40.2594 35.8019 41.529 35.4696C43.2066 35.0305 44.9074 34.6774 46.604 34.3144C47.7058 34.0787 48.8152 33.8755 49.9261 33.6863C51.2645 33.4582 52.6057 33.2432 53.95 33.0536C55.961 32.7698 57.9752 32.5076 59.9894 32.2477C60.8141 32.1413 61.6405 32.0306 62.4697 31.9805C66.2731 31.7509 70.0768 31.5243 73.8822 31.3344C75.4226 31.2575 76.9682 31.2921 78.5106 31.2473C79.7013 31.2127 80.8904 31.1028 82.0809 31.0902C82.5088 31.0856 82.9387 31.2673 83.3742 31.3655C83.6592 31.2771 83.9863 31.09 84.3156 31.0861C90.8637 31.0102 97.4119 30.9355 103.96 30.9125C105.342 30.9077 106.723 31.1436 108.107 31.1942C108.584 31.2116 109.071 30.9035 109.549 30.9157C110.914 30.9503 112.271 30.9241 113.592 31.5308C114.105 31.7666 114.891 31.3374 115.554 31.3322C117.117 31.3199 118.681 31.3649 120.243 31.4163C121.583 31.4604 122.922 31.5457 124.261 31.6123C126.73 31.735 129.211 31.7481 131.666 32.0059C135.188 32.3757 138.693 32.9159 142.203 33.3991C143.85 33.6258 145.508 33.8124 147.131 34.1585C148.649 34.482 150.126 34.9925 151.675 35.4583ZM118.645 56.1958C131.546 56.1958 144.446 56.1959 157.346 56.1958C159.131 56.1957 159.813 55.5233 159.836 53.7104C159.851 52.5133 159.775 51.312 159.851 50.1195C160.022 47.3968 158.768 45.4927 156.564 44.0764C153.988 42.42 151.122 41.4928 148.184 40.7621C140.049 38.7386 131.734 38.0073 123.402 37.6057C115.575 37.2285 107.733 37.06 99.8964 37.0001C87.1196 36.9023 74.345 37.0557 61.6067 38.2464C55.6788 38.8004 49.7833 39.5512 44.0369 41.1731C41.3835 41.922 38.7972 42.8557 36.5564 44.5371C34.8541 45.8144 33.8261 47.4175 33.9417 49.6495C34.0144 51.0525 33.9546 52.4623 33.9589 53.8691C33.9639 55.5123 34.6532 56.1934 36.3041 56.1934C63.6913 56.1943 91.0785 56.195 118.645 56.1958ZM158.653 38.5359C158.584 38.5138 158.517 38.4879 158.448 38.4726C158.433 38.4695 158.411 38.5061 158.392 38.5243C158.46 38.5464 158.528 38.5685 158.653 38.5359ZM31.7624 60.7278C31.7193 60.7542 31.652 60.7727 31.6402 60.8092C31.6297 60.8417 31.6805 60.8941 31.7042 60.9377C31.728 60.894 31.7518 60.8503 31.7624 60.7278Z" fill="#E3242E"/>
<path d="M110.46 139.051C110.479 139.106 110.511 139.151 110.602 139.256C110.701 139.36 110.755 139.396 110.809 139.431C110.811 139.483 110.828 139.529 110.903 139.666C111.044 140.875 111.139 141.988 111.238 143.142C110.276 143.142 109.514 143.142 108.651 143.142C108.651 142.422 108.678 141.741 108.633 141.064C108.621 140.883 108.39 140.717 108.259 140.544C108.149 140.725 107.951 140.902 107.944 141.088C107.909 141.923 107.928 142.76 107.928 143.597C107.927 144.822 107.914 146.048 107.94 147.272C107.944 147.462 108.133 147.647 108.236 147.835C108.37 147.743 108.617 147.655 108.621 147.558C108.647 146.847 108.67 146.129 108.601 145.423C108.548 144.885 108.357 144.36 108.209 143.751C109.303 143.751 110.183 143.751 111.15 143.751C111.15 145.673 111.157 147.548 111.137 149.422C111.135 149.557 110.942 149.69 110.838 149.823C110.541 149.81 110.244 149.79 109.947 149.784C109.187 149.769 109.187 149.772 108.924 148.884C108.276 149.88 107.431 150.058 106.387 149.662C105.736 149.416 105.48 148.974 105.448 148.177C105.428 145.567 105.421 143.107 105.413 140.646C105.432 140.57 105.45 140.494 105.517 140.328C105.583 140.136 105.599 140.034 105.615 139.932C105.615 139.932 105.658 139.887 105.703 139.828C105.765 139.703 105.782 139.638 105.799 139.573C105.799 139.573 105.802 139.572 105.843 139.555C105.938 139.497 105.955 139.445 105.934 139.381C106.045 139.281 106.156 139.181 106.342 139.037C106.475 138.962 106.507 138.915 106.514 138.851C106.514 138.851 106.52 138.855 106.582 138.848C106.907 138.729 107.171 138.616 107.434 138.503C107.511 138.5 107.589 138.497 107.799 138.497C108.238 138.489 108.545 138.477 108.852 138.466C108.981 138.482 109.11 138.498 109.342 138.559C109.669 138.677 109.893 138.75 110.118 138.824C110.118 138.824 110.168 138.872 110.223 138.924C110.339 139.001 110.399 139.026 110.46 139.051Z" fill="#D02731"/>
<path d="M100.233 149.532C100.207 149.513 100.181 149.493 100.093 149.416C99.9796 149.334 99.9266 149.31 99.8736 149.285C99.784 149.178 99.6944 149.071 99.5538 148.89C99.454 148.777 99.4051 148.738 99.3562 148.699C99.3562 148.699 99.344 148.619 99.3257 148.541C99.2978 148.396 99.26 148.354 99.1939 148.339C99.1939 148.339 99.1737 148.358 99.1804 148.274C99.1366 145.631 99.0861 143.073 99.0355 140.515C99.0355 140.515 98.9918 140.506 99.0489 140.485C99.1393 140.409 99.142 140.353 99.1143 140.296C100.001 138.262 102.523 137.79 104.295 139.422C104.417 139.584 104.482 139.662 104.546 139.739C104.546 139.739 104.541 139.749 104.543 139.815C104.644 140.15 104.743 140.42 104.842 140.69C104.842 140.69 104.839 140.7 104.824 140.784C104.788 143.251 104.769 145.635 104.75 148.018C104.75 148.018 104.722 148.1 104.676 148.174C104.607 148.351 104.584 148.453 104.562 148.556C104.502 148.638 104.442 148.721 104.315 148.876C103.988 149.177 103.726 149.404 103.465 149.631C103.435 149.633 103.405 149.635 103.262 149.657C102.477 149.731 101.806 149.784 101.135 149.838C101.065 149.819 100.996 149.801 100.849 149.741C100.711 149.693 100.651 149.684 100.592 149.676C100.562 149.664 100.532 149.652 100.438 149.602C100.334 149.518 100.288 149.508 100.233 149.532ZM102.492 147.008C102.516 145.137 102.544 143.266 102.556 141.394C102.557 141.266 102.442 141.137 102.354 140.947C102.354 140.947 102.372 140.882 102.363 140.792C102.344 140.731 102.307 140.687 102.151 140.573C101.429 140.411 101.537 140.951 101.535 141.34C101.521 143.22 101.514 145.101 101.544 146.981C101.549 147.261 101.763 147.538 101.881 147.816C102.048 147.58 102.214 147.344 102.492 147.008Z" fill="#D2242F"/>
<path d="M97.1788 138.834C97.1788 138.834 97.2329 138.878 97.2906 138.928C97.4107 138.996 97.473 139.016 97.5354 139.035C97.5354 139.035 97.5382 139.034 97.5539 139.077C97.6214 139.146 97.6733 139.171 97.7251 139.196C97.7251 139.196 97.7219 139.209 97.7362 139.252C97.7865 139.347 97.8359 139.377 97.8989 139.386C97.8989 139.386 97.8963 139.393 97.9034 139.441C97.9592 139.525 98.008 139.561 98.0569 139.598C98.0569 139.598 98.0768 139.684 98.1003 139.761C98.1466 139.895 98.1882 139.928 98.2486 139.938C98.2516 139.969 98.2546 139.999 98.2689 140.121C98.317 140.262 98.3538 140.312 98.3906 140.362C98.4035 140.438 98.4165 140.514 98.4265 140.697C98.3846 143.269 98.3457 145.734 98.3068 148.2C98.1322 148.471 97.9575 148.742 97.7089 149.071C97.5769 149.158 97.5447 149.204 97.5383 149.269C97.5383 149.269 97.5378 149.272 97.4733 149.28C97.0952 149.423 96.7817 149.557 96.4683 149.692C95.2407 149.703 94.0131 149.715 92.7378 149.633C92.6901 149.54 92.659 149.458 92.659 149.458C92.6658 149.375 92.6727 149.291 92.6865 149.064C92.6813 146.466 92.6692 144.011 92.6572 141.557C92.6645 141.474 92.6717 141.39 92.6864 141.164C92.6938 140.237 92.6938 139.454 92.6938 138.617C94.0374 138.617 95.2457 138.617 96.4539 138.617C96.5344 138.638 96.6148 138.659 96.7837 138.73C96.9745 138.798 97.0766 138.816 97.1788 138.834ZM95.1371 140.619C95.0552 142.801 94.9509 144.982 94.9257 147.163C94.9232 147.383 95.3985 147.609 95.6521 147.832C95.8273 147.572 96.1512 147.315 96.1539 147.054C96.1736 145.144 96.1387 143.234 96.0904 141.324C96.0851 141.115 95.8857 140.91 95.6642 140.706C95.5155 140.698 95.3668 140.691 95.1371 140.619Z" fill="#D0232E"/>
<path d="M124.903 141.566C124.888 141.642 124.873 141.718 124.811 141.901C124.747 142.278 124.728 142.549 124.71 142.82C124.695 142.897 124.68 142.973 124.616 143.155C124.55 143.53 124.532 143.8 124.514 144.07C124.505 144.148 124.495 144.226 124.44 144.413C124.211 145.577 124.015 146.631 123.861 147.692C123.841 147.828 124.043 147.997 124.142 148.151C124.436 148.169 124.73 148.187 125.105 148.286C125.181 148.782 125.175 149.196 125.134 149.625C125.051 149.665 125.015 149.7 124.939 149.75C124.821 149.76 124.754 149.765 124.625 149.729C123.811 149.716 123.058 149.745 122.252 149.769C122.066 149.718 121.934 149.67 121.805 149.544C121.849 148.857 121.888 148.248 121.942 147.564C122.069 146.704 122.181 145.917 122.307 145.064C122.334 144.82 122.346 144.641 122.402 144.405C122.66 142.961 122.874 141.575 123.088 140.191C122.604 140.108 122.314 140.058 122.041 140.011C121.656 138.715 121.708 138.643 122.986 138.647C123.404 138.649 123.825 138.691 124.238 138.648C124.938 138.575 125.14 138.887 125.065 139.534C124.987 140.208 124.955 140.888 124.903 141.566Z" fill="#F1AE26"/>
<path d="M91.0743 138.508C91.2576 138.517 91.4409 138.527 91.7192 138.557C91.8142 138.577 91.8932 138.599 91.8932 138.599C91.8932 138.599 91.9701 138.57 92.032 138.61C92.0688 139.121 92.1626 139.944 91.9976 140C91.3653 140.213 91.4648 140.631 91.4649 141.066C91.4656 143.671 91.4463 146.275 91.4831 148.88C91.4936 149.619 91.1948 149.858 90.5237 149.766C90.2882 149.734 90.0574 149.668 89.8229 149.566C89.7753 149.427 89.7294 149.34 89.6834 149.252C89.677 149.122 89.6706 148.991 89.6708 148.721C89.6655 148.273 89.6536 147.965 89.6522 147.573C89.6583 145.268 89.6539 143.047 89.6659 140.758C89.5483 140.501 89.4142 140.31 89.2157 140.097C89.0685 139.785 88.9857 139.494 88.9081 139.139C88.9163 138.942 88.9192 138.811 88.9221 138.679C88.9221 138.679 88.9166 138.674 89.0005 138.668C89.7477 138.61 90.411 138.559 91.0743 138.508Z" fill="#EFB02F"/>
<path d="M80.6333 138.849C80.6333 138.849 80.6622 138.777 80.7461 138.727C82.8197 138.581 82.4752 138.523 82.4912 140.268C82.4953 140.714 82.4579 141.162 82.4961 141.604C82.5455 142.176 82.6515 142.744 82.7931 143.349C82.9481 144.146 83.0745 144.906 83.1313 145.672C83.2286 146.982 83.2823 148.296 83.2919 149.622C83.1467 149.652 83.064 149.67 82.9395 149.661C82.8643 149.576 82.831 149.519 82.8087 149.377C82.8197 147.826 82.8197 146.361 82.8197 144.895C82.7141 144.897 82.6085 144.9 82.5029 144.903C82.5029 146.429 82.5029 147.955 82.4738 149.524C82.3919 149.61 82.3392 149.654 82.2447 149.689C82.1442 149.692 82.0968 149.721 81.9848 149.767C81.5539 149.777 81.1991 149.788 80.8443 149.799C80.8443 149.799 80.8671 149.787 80.8583 149.694C80.7791 147.095 80.7087 144.589 80.6543 142C80.658 140.895 80.6457 139.872 80.6333 138.849Z" fill="#F2B02C"/>
<path d="M78.9154 149.095C78.891 149.401 78.8665 149.707 78.8048 150.138C78.74 150.473 78.7126 150.683 78.6853 150.893C78.6853 150.893 78.6778 150.889 78.5965 150.896C77.8696 150.903 77.224 150.903 76.524 150.903C76.6401 149.766 76.7608 148.761 76.8308 147.753C76.8454 147.542 76.6725 147.319 76.5859 147.101C76.4117 147.288 76.1115 147.458 76.0844 147.664C75.9443 148.728 75.8742 149.801 75.7796 150.872C75.7796 150.872 75.7031 150.897 75.5866 150.906C74.8599 150.915 74.2498 150.916 73.6397 150.917C73.6216 150.886 73.6034 150.854 73.598 150.703C73.6131 150.324 73.6155 150.065 73.6179 149.806C73.6448 149.574 73.6717 149.341 73.7341 148.978C73.7811 148.51 73.7927 148.173 73.8042 147.836C73.8185 147.644 73.8328 147.452 73.8483 147.178C73.8495 147.096 73.8714 147.075 73.9342 147.1C74.6934 147.764 74.2698 148.468 74.1496 149.175C74.0849 149.555 74.051 150.077 74.2561 150.326C74.4395 150.549 74.9701 150.486 75.4285 150.563C75.5063 149.717 75.5519 149.04 75.6368 148.368C75.6886 147.958 75.7359 147.525 75.9091 147.161C76.0247 146.918 76.4299 146.583 76.5789 146.637C76.847 146.734 77.0748 147.067 77.2136 147.352C77.3047 147.54 77.216 147.818 77.1978 148.055C77.1526 148.645 77.1024 149.234 77.0528 149.823C77.0144 150.28 77.1299 150.563 77.6804 150.541C78.156 150.521 78.4972 150.444 78.5048 149.863C78.5125 149.277 78.5212 148.684 78.6204 148.109C78.6791 147.769 78.9138 147.459 79.0684 147.194C79.073 147.33 79.0786 147.407 79.0841 147.485C79.0651 147.674 79.046 147.863 78.9887 148.174C78.9387 148.563 78.927 148.829 78.9154 149.095Z" fill="#C63E48"/>
<path d="M73.8385 147.107C73.5623 147.102 73.297 147.087 72.8941 147.064C72.9751 146.456 73.0514 145.883 73.1309 145.286C73.4583 145.231 73.7465 145.182 74.1195 145.118C74.138 144.813 74.1569 144.501 74.179 144.137C73.869 144.097 73.616 144.064 73.2925 144.022C73.3705 143.39 73.4421 142.809 73.5223 142.159C74.4224 142.243 74.5275 141.658 74.5271 140.981C74.5269 140.743 74.5473 140.503 74.5716 140.266C74.7692 138.329 74.7702 138.329 76.9235 138.597C76.8467 139.701 76.7691 140.815 76.6855 142.018C76.6795 142.108 76.658 142.129 76.5955 142.097C76.4843 141.582 76.4075 141.099 76.397 140.614C76.3901 140.294 76.4925 139.974 76.521 139.651C76.5641 139.163 76.4075 138.857 75.8384 138.844C75.3443 138.833 75.0545 138.922 75.0617 139.514C75.0682 140.041 74.9187 140.569 74.9088 141.098C74.8956 141.801 74.7635 142.354 74.0152 142.668C73.5036 142.883 73.4579 143.315 73.9248 143.702C74.6451 144.298 74.5595 145.216 73.7258 145.673C73.209 145.956 73.0199 146.229 73.6381 146.623C73.7617 146.702 73.796 146.921 73.8714 147.075C73.8714 147.075 73.8495 147.096 73.8385 147.107Z" fill="#C63E48"/>
<path d="M85.8638 149.636C85.574 149.314 85.2843 148.992 84.9868 148.526C84.9736 145.505 84.9681 142.627 84.983 139.692C85.1147 139.378 85.226 139.121 85.3372 138.865C85.3372 138.865 85.3246 138.854 85.3972 138.858C85.8994 138.73 86.3291 138.598 86.7588 138.466C86.9505 138.477 87.1422 138.489 87.442 138.542C87.7783 138.722 88.0066 138.86 88.2202 139.012C88.2056 139.026 88.1765 139.055 88.1035 139.048C87.9119 139.029 87.7901 139.032 87.6755 139.005C86.0119 138.607 85.1511 139.27 85.1452 140.965C85.1409 142.217 85.1446 143.468 85.1452 144.719C85.146 146.396 85.087 148.084 86.005 149.594C85.9264 149.617 85.8951 149.626 85.8638 149.636Z" fill="#EFB02F"/>
<path d="M76.6902 142.098C77.1465 142.141 77.4122 142.047 77.4249 141.496C77.4426 140.728 77.5762 139.963 77.6243 139.195C77.6566 138.679 77.8658 138.429 78.4005 138.507C78.9018 138.579 79.4041 138.645 79.9054 138.857C79.7872 139.974 79.6696 140.947 79.4906 141.903C79.4207 141.141 79.3877 140.395 79.4118 139.651C79.4291 139.117 79.3257 138.831 78.6898 138.834C78.0794 138.837 77.9728 139.08 77.9366 139.629C77.8815 140.464 77.769 141.314 77.5331 142.114C77.3829 142.624 76.9641 142.868 76.658 142.129C76.658 142.129 76.6795 142.108 76.6902 142.098Z" fill="#C63E48"/>
<path d="M80.3047 144.035C80.0409 144.062 79.7771 144.089 79.4306 144.124C79.4005 144.433 79.3705 144.743 79.336 145.099C79.6459 145.169 79.8969 145.225 80.2368 145.302C80.1454 145.864 80.0565 146.411 79.8707 147.019C79.5861 147.071 79.3984 147.062 79.221 146.994C79.4299 146.501 80.1317 146.19 79.5171 145.567C78.6405 144.678 78.8435 143.93 80.2442 143.5C80.0146 143.004 79.7991 142.538 79.6558 142.083C79.9712 142.101 80.2143 142.108 80.4728 142.192C80.4269 142.857 80.3658 143.446 80.3047 144.035Z" fill="#C63E48"/>
<path d="M96.5168 149.729C96.7817 149.557 97.0952 149.423 97.4718 149.28C97.2117 149.436 96.8885 149.601 96.5168 149.729Z" fill="#FCE5D0"/>
<path d="M104.864 140.619C104.743 140.42 104.644 140.15 104.548 139.817C104.663 140.019 104.775 140.283 104.864 140.619Z" fill="#FDD7DB"/>
<path d="M107.362 138.494C107.171 138.616 106.907 138.729 106.581 138.845C106.776 138.727 107.033 138.606 107.362 138.494Z" fill="#FDD7DB"/>
<path d="M108.805 138.423C108.545 138.477 108.238 138.489 107.856 138.485C108.106 138.44 108.432 138.41 108.805 138.423Z" fill="#FDD7DB"/>
<path d="M110.104 138.76C109.893 138.75 109.669 138.677 109.407 138.557C109.609 138.572 109.85 138.634 110.104 138.76Z" fill="#FDD7DB"/>
<path d="M105.561 139.937C105.599 140.034 105.583 140.136 105.524 140.27C105.49 140.181 105.499 140.062 105.561 139.937Z" fill="#FDD7DB"/>
<path d="M104.548 139.684C104.482 139.662 104.417 139.584 104.347 139.455C104.41 139.479 104.48 139.554 104.548 139.684Z" fill="#FDD7DB"/>
<path d="M89.8229 149.566C89.7929 149.622 89.7613 149.626 89.6818 149.632C89.6354 149.547 89.6368 149.461 89.6608 149.313C89.7294 149.34 89.7753 149.427 89.8229 149.566Z" fill="#F4DE8A"/>
<path d="M104.607 148.525C104.584 148.453 104.607 148.351 104.674 148.218C104.696 148.29 104.674 148.392 104.607 148.525Z" fill="#FDD7DB"/>
<path d="M106.474 138.859C106.507 138.916 106.475 138.963 106.373 138.991C106.344 138.932 106.379 138.891 106.474 138.859Z" fill="#FDD7DB"/>
<path d="M110.441 139.004C110.4 139.027 110.339 139.002 110.257 138.931C110.298 138.908 110.36 138.932 110.441 139.004Z" fill="#FDD7DB"/>
<path d="M110.801 139.383C110.756 139.396 110.702 139.36 110.639 139.275C110.684 139.262 110.738 139.298 110.801 139.383Z" fill="#FDD7DB"/>
<path d="M100.619 149.713C100.652 149.684 100.712 149.693 100.795 149.742C100.761 149.772 100.703 149.761 100.619 149.713Z" fill="#FDD7DB"/>
<path d="M100.252 149.563C100.288 149.508 100.335 149.518 100.391 149.598C100.357 149.642 100.311 149.629 100.252 149.563Z" fill="#FDD7DB"/>
<path d="M92.6321 149.474C92.6591 149.458 92.6904 149.54 92.6809 149.583C92.6493 149.58 92.6272 149.535 92.6321 149.474Z" fill="#FCE5D0"/>
<path d="M99.8897 149.327C99.9268 149.31 99.9801 149.334 100.047 149.403C99.9954 149.447 99.944 149.421 99.8897 149.327Z" fill="#FDD7DB"/>
<path d="M105.898 139.401C105.956 139.446 105.939 139.498 105.842 139.554C105.798 139.511 105.818 139.461 105.898 139.401Z" fill="#FDD7DB"/>
<path d="M97.5809 149.261C97.5446 149.205 97.577 149.158 97.6793 149.123C97.7127 149.179 97.6795 149.224 97.5809 149.261Z" fill="#FCE5D0"/>
<path d="M105.755 139.601C105.782 139.638 105.765 139.703 105.706 139.797C105.679 139.76 105.695 139.695 105.755 139.601Z" fill="#FDD7DB"/>
<path d="M99.3615 148.747C99.4053 148.738 99.4545 148.777 99.509 148.864C99.4652 148.874 99.416 148.835 99.3615 148.747Z" fill="#FDD7DB"/>
<path d="M99.1895 148.383C99.2604 148.354 99.2984 148.396 99.3041 148.508C99.24 148.53 99.2016 148.489 99.1895 148.383Z" fill="#FCE5D0"/>
<path d="M99.0793 140.321C99.1426 140.353 99.1399 140.41 99.0706 140.489C99.0005 140.456 99.0035 140.4 99.0793 140.321Z" fill="#FCE5D0"/>
<path d="M149.429 83.5614C149.083 83.0429 148.785 82.5688 148.487 82.0948C148.581 82.0331 148.674 81.9714 148.767 81.9097C149.471 82.1166 149.676 82.7783 149.939 83.3767C149.942 83.3841 149.637 83.5265 149.429 83.5614Z" fill="#F4AE22"/>
<path d="M147.476 81.7316C147.443 81.4755 147.41 81.2193 147.336 80.6476C147.728 81.0254 147.946 81.2347 148.164 81.444C147.981 81.5396 147.798 81.6353 147.545 81.7311C147.476 81.7313 147.476 81.7316 147.476 81.7316Z" fill="#F4AE22"/>
<path d="M156.349 68.3436C156.268 68.3227 156.218 68.2717 156.172 68.2175C156.171 68.2161 156.212 68.1791 156.233 68.1588C156.282 68.2102 156.332 68.2617 156.349 68.3436Z" fill="#F4AE22"/>
<path d="M152.255 67.9081C152.184 67.9514 152.113 67.9511 152.043 67.9457C152.041 67.9456 152.043 67.8907 152.043 67.8614C152.114 67.8622 152.185 67.8629 152.255 67.9081Z" fill="#F4AE22"/>
<path d="M158.624 38.5632C158.528 38.5685 158.46 38.5464 158.392 38.5243C158.411 38.5061 158.433 38.4695 158.448 38.4726C158.517 38.4879 158.584 38.5138 158.624 38.5632Z" fill="#D73841"/>
<path d="M31.7697 60.7673C31.7524 60.8508 31.7285 60.8947 31.7046 60.9387C31.6807 60.8948 31.6297 60.8422 31.6402 60.8094C31.6521 60.7728 31.7197 60.7541 31.7697 60.7673Z" fill="#D73841"/>
<path d="M102.437 147.058C102.371 145.13 102.36 143.152 102.365 141.091C102.442 141.137 102.557 141.266 102.556 141.394C102.544 143.266 102.516 145.137 102.437 147.058Z" fill="#B3303A"/>
<path d="M102.368 140.838C102.333 140.839 102.294 140.795 102.252 140.705C102.307 140.687 102.345 140.732 102.368 140.838Z" fill="#B3303A"/>
<path d="M95.1777 140.652C95.2182 142.977 95.2182 145.271 95.2182 147.564C95.2972 147.603 95.3762 147.642 95.4552 147.681C95.6039 147.464 95.881 147.247 95.8814 147.029C95.8855 144.973 95.8423 142.918 95.7946 140.783C95.8857 140.91 96.0851 141.115 96.0904 141.324C96.1387 143.234 96.1736 145.144 96.1539 147.054C96.1513 147.315 95.8273 147.572 95.6521 147.832C95.3986 147.609 94.9232 147.383 94.9257 147.163C94.951 144.981 95.0552 142.801 95.1777 140.652Z" fill="#B3303A"/>
<path d="M124.625 149.729C123.949 149.784 123.211 149.797 122.389 149.791C123.058 149.745 123.811 149.716 124.625 149.729Z" fill="#F4DE8A"/>
<path d="M125.134 149.625C125.177 149.642 125.185 149.674 125.192 149.753C125.157 149.798 125.122 149.794 125.037 149.769C125.015 149.7 125.051 149.665 125.134 149.625Z" fill="#F4DE8A"/>
<path d="M82.7931 143.349C82.7547 143.187 82.7763 143.059 82.8835 142.851C83.0354 141.812 83.1117 140.854 83.1633 139.894C83.1867 139.457 83.1985 138.914 83.7795 139.095C84.0626 139.184 84.2907 139.735 84.3645 140.112C84.4184 140.387 84.0826 140.721 84.0869 141.026C84.1138 142.957 84.0984 144.897 84.2824 146.815C84.3756 147.787 84.4389 148.694 83.9901 149.61C83.7314 149.617 83.5429 149.613 83.3544 149.609C83.2823 148.296 83.2286 146.982 83.1313 145.672C83.0745 144.906 82.9482 144.146 82.7931 143.349Z" fill="#F7AD1B"/>
<path d="M83.2919 149.622C83.5429 149.613 83.7314 149.616 84.0428 149.634C84.1979 149.669 84.2301 149.691 84.2623 149.712C83.8692 149.731 83.4762 149.75 83.0322 149.729C83.064 149.67 83.1467 149.652 83.2919 149.622Z" fill="#F4DE8A"/>
<path d="M82.2455 149.689C82.2545 149.75 82.2073 149.779 82.1033 149.778C82.0968 149.721 82.1444 149.692 82.2455 149.689Z" fill="#F4DE8A"/>
<path d="M111.599 138.952C111.608 138.872 111.671 138.883 111.751 138.923C112.7 138.915 113.569 138.866 114.438 138.817C114.438 138.817 114.451 138.805 114.458 138.843C114.51 138.861 114.554 138.841 114.599 138.821C114.699 138.86 114.798 138.899 114.932 139.052C115.084 140.061 115.27 140.952 115.304 141.85C115.341 142.785 115.232 143.725 115.187 144.663C115.187 144.663 115.189 144.725 115.122 144.8C115.187 145.802 115.32 146.73 115.452 147.659C115.482 147.887 115.511 148.115 115.527 148.496C115.574 149.23 115.379 149.491 114.73 149.475C114.061 149.457 113.868 149.187 113.869 148.56C113.87 147.901 113.764 147.241 113.677 146.524C113.574 146.267 113.498 146.067 113.422 145.867C113.359 145.873 113.297 145.88 113.235 145.886C113.235 147.147 113.235 148.408 113.235 149.669C113.194 149.679 113.154 149.689 112.978 149.678C112.471 149.656 112.099 149.655 111.727 149.654C111.68 148.714 111.613 147.775 111.592 146.834C111.569 145.795 111.588 144.754 111.61 143.607C111.613 143.442 111.595 143.383 111.577 143.325C111.577 142.613 111.578 141.902 111.6 141.086C111.605 140.925 111.588 140.869 111.57 140.812C111.577 140.218 111.583 139.625 111.599 138.952ZM113.718 142.001C113.718 141.41 113.718 140.819 113.718 140.228C113.632 140.234 113.547 140.24 113.462 140.246C113.462 141.535 113.462 142.823 113.462 144.112C113.547 144.111 113.632 144.11 113.718 144.11C113.718 143.465 113.718 142.821 113.718 142.001Z" fill="#F4AE22"/>
<path d="M121.608 147.568C121.608 148.256 121.602 148.861 121.6 149.547C121.604 149.629 121.524 149.666 121.415 149.659C121.04 149.692 120.774 149.731 120.508 149.771C120.221 149.763 119.934 149.755 119.565 149.716C119.483 149.685 119.455 149.626 119.455 149.628C119.454 149.63 119.456 149.626 119.483 149.635C119.51 149.643 119.565 149.653 119.635 149.616C119.735 148.635 119.765 147.692 119.795 146.748C119.805 144.541 119.828 142.334 119.821 140.127C119.817 138.544 119.886 138.472 121.614 138.764C121.614 139.207 121.614 139.671 121.626 140.218C121.631 140.376 121.624 140.453 121.622 140.587C121.62 142.925 121.611 145.205 121.608 147.568Z" fill="#F1AE26"/>
<path d="M111.771 149.705C112.099 149.655 112.471 149.656 112.917 149.688C112.598 149.732 112.207 149.744 111.771 149.705Z" fill="#F4DE8A"/>
<path d="M120.577 149.789C120.774 149.731 121.04 149.692 121.374 149.674C121.176 149.733 120.911 149.77 120.577 149.789Z" fill="#F4DE8A"/>
<path d="M111.565 143.381C111.595 143.383 111.614 143.442 111.608 143.525C111.573 143.512 111.563 143.475 111.565 143.381Z" fill="#F4DE8A"/>
<path d="M111.56 140.866C111.588 140.869 111.605 140.926 111.597 141.005C111.564 140.991 111.556 140.955 111.56 140.866Z" fill="#F4DE8A"/>
<path d="M119.455 149.628C119.09 149.626 118.725 149.625 118.283 149.616C118.168 149.016 118.183 148.413 118.07 147.836C118.011 147.537 117.725 147.283 117.331 147.073C117.261 147.647 117.144 148.22 117.134 148.794C117.126 149.3 116.952 149.469 116.449 149.468C115.87 149.468 115.84 149.138 115.859 148.71C115.904 147.676 115.939 146.641 115.93 145.55C115.882 145.416 115.883 145.338 115.892 145.202C116.006 144.448 116.15 143.756 116.207 143.056C116.302 141.903 116.317 140.743 116.423 139.592C116.441 139.39 116.703 139.124 116.912 139.045C117.264 138.913 117.662 138.899 118.043 138.852C118.707 138.77 118.903 139.087 118.933 139.732C119.04 141.982 119.208 144.228 119.407 146.527C119.461 146.579 119.488 146.658 119.483 146.744C119.473 146.864 119.467 146.898 119.409 146.981C119.39 147.895 119.423 148.761 119.456 149.626C119.456 149.626 119.454 149.63 119.455 149.628ZM117.827 144.488C117.792 143.406 117.757 142.325 117.723 141.243C117.67 141.246 117.616 141.249 117.563 141.252C117.563 142.744 117.563 144.237 117.563 145.729C117.652 145.731 117.74 145.734 117.828 145.736C117.828 145.377 117.828 145.017 117.827 144.488Z" fill="#F5AD1C"/>
<path d="M79.2211 146.994C79.2107 147.054 79.1448 147.103 79.1071 147.119C78.9138 147.459 78.6792 147.769 78.6204 148.109C78.5212 148.684 78.5125 149.277 78.5048 149.863C78.4972 150.444 78.156 150.521 77.6805 150.541C77.1299 150.563 77.0144 150.28 77.0528 149.823C77.1024 149.234 77.1526 148.645 77.1978 148.055C77.216 147.818 77.3048 147.54 77.2136 147.352C77.0748 147.067 76.847 146.734 76.5789 146.637C76.4299 146.582 76.0247 146.918 75.9091 147.161C75.7359 147.525 75.6886 147.958 75.6368 148.368C75.5519 149.04 75.5063 149.717 75.4285 150.563C74.9701 150.486 74.4395 150.549 74.2562 150.326C74.051 150.077 74.085 149.555 74.1496 149.175C74.2698 148.468 74.6934 147.764 73.9343 147.1C73.796 146.921 73.7617 146.702 73.6381 146.623C73.0199 146.229 73.209 145.956 73.7259 145.673C74.5595 145.216 74.6451 144.298 73.9248 143.702C73.4579 143.315 73.5037 142.883 74.0152 142.668C74.7635 142.354 74.8956 141.801 74.9088 141.098C74.9187 140.569 75.0682 140.041 75.0617 139.514C75.0545 138.922 75.3443 138.833 75.8384 138.844C76.4075 138.857 76.5641 139.163 76.521 139.651C76.4925 139.974 76.3901 140.294 76.397 140.614C76.4075 141.099 76.4843 141.582 76.5955 142.097C76.9641 142.868 77.3829 142.624 77.5331 142.114C77.769 141.314 77.8815 140.464 77.9366 139.629C77.9728 139.08 78.0794 138.837 78.6898 138.834C79.3257 138.83 79.4291 139.117 79.4118 139.651C79.3877 140.395 79.4207 141.141 79.4906 141.903C79.5519 141.92 79.5726 141.996 79.5781 142.034C79.7991 142.538 80.0147 143.004 80.2443 143.5C78.8435 143.93 78.6405 144.678 79.5171 145.567C80.1317 146.19 79.4299 146.501 79.2211 146.994ZM77.127 144.103C76.2582 144.062 76.1901 144.178 76.4667 145.263C77.3877 145.381 77.0996 144.646 77.127 144.103Z" fill="#E3242E"/>
<path d="M115.463 147.585C115.32 146.73 115.187 145.802 115.111 144.829C115.27 145.693 115.372 146.602 115.463 147.585Z" fill="#E6B64A"/>
<path d="M114.567 138.81C114.555 138.841 114.51 138.861 114.467 138.844C114.468 138.807 114.535 138.8 114.567 138.81Z" fill="#E6B64A"/>
<path d="M84.3161 149.691C84.2301 149.691 84.1979 149.669 84.113 149.624C84.4389 148.694 84.3756 147.787 84.2824 146.815C84.0984 144.896 84.1138 142.957 84.0869 141.026C84.0826 140.721 84.4184 140.387 84.3645 140.112C84.2907 139.735 84.0626 139.184 83.7795 139.095C83.1985 138.914 83.1867 139.457 83.1633 139.894C83.1117 140.854 83.0354 141.812 82.9 142.788C82.8171 141.767 82.8537 140.725 82.7742 139.691C82.7068 138.816 83.0183 138.482 83.8744 138.634C84.0492 138.665 84.2286 138.67 84.4839 138.702C84.5769 138.952 84.5918 139.188 84.5998 139.578C84.6009 142.736 84.6091 145.739 84.6172 148.741C84.6102 148.872 84.6032 149.003 84.5612 149.236C84.5099 149.435 84.4934 149.532 84.477 149.628C84.4413 149.642 84.4056 149.656 84.3161 149.691Z" fill="#F2B02C"/>
<path d="M88.5008 139.205C88.6217 139.621 88.7065 140.005 88.8292 140.441C88.8781 140.571 88.8891 140.649 88.9204 140.781C88.9283 143.053 88.9159 145.269 88.9134 147.569C88.9012 147.834 88.8791 148.014 88.8208 148.294C88.7504 148.443 88.7373 148.498 88.7455 148.558C88.5288 149.086 88.3366 149.639 87.5218 149.683C87.3567 149.704 87.3133 149.737 87.2849 149.79C87.0446 149.792 86.8043 149.793 86.4842 149.751C86.4045 149.708 86.397 149.626 86.4448 149.577C87.8011 149.338 88.2792 149.014 88.3672 148.05C88.641 145.047 88.8103 142.041 88.1765 139.055C88.1765 139.055 88.2056 139.026 88.2202 139.012C88.3115 139.056 88.3881 139.114 88.5008 139.205Z" fill="#EFB02F"/>
<path d="M86.397 149.626C86.397 149.626 86.4045 149.708 86.4122 149.748C86.2611 149.768 86.1023 149.748 85.9036 149.682C85.8951 149.626 85.9264 149.617 86.0611 149.61C86.242 149.617 86.3195 149.622 86.397 149.626Z" fill="#F4DE8A"/>
<path d="M84.5188 149.598C84.4934 149.532 84.5098 149.435 84.5607 149.302C84.5837 149.366 84.5722 149.467 84.5188 149.598Z" fill="#F4DE8A"/>
<path d="M87.3251 149.793C87.3132 149.737 87.3569 149.704 87.4568 149.7C87.4651 149.756 87.421 149.784 87.3251 149.793Z" fill="#F4DE8A"/>
<path d="M88.7843 148.533C88.7372 148.499 88.7503 148.443 88.814 148.362C88.8365 148.389 88.8298 148.448 88.7843 148.533Z" fill="#F4DE8A"/>
<path d="M86.4448 149.577C86.3195 149.622 86.242 149.617 86.1083 149.597C85.087 148.084 85.146 146.396 85.1452 144.719C85.1446 143.468 85.1409 142.217 85.1452 140.965C85.1511 139.27 86.0119 138.607 87.6755 139.005C87.7901 139.032 87.912 139.029 88.1035 139.048C88.8103 142.041 88.641 145.047 88.3672 148.05C88.2792 149.014 87.8011 149.338 86.4448 149.577ZM87.113 146.579C87.113 144.413 87.113 142.247 87.113 140.081C87.024 140.084 86.935 140.087 86.846 140.09C86.4365 142.012 86.4842 147.541 87.1297 148.13C87.1297 147.665 87.1297 147.201 87.113 146.579Z" fill="#F6AD1D"/>
</svg>
